<svg xmlns="http://www.w3.org/2000/svg" viewBox="0 0 32 32" width="32" height="32" role="img" aria-label="Ghana GeoStack"><mask id="gap-logo"><rect width="32" height="32" fill="#fff"/><rect x="12.03" y="0.00" width="7.94" height="4.64" fill="#000"/></mask><g fill="#FFFFFF"><circle cx="16.00" cy="16.00" r="12.64" fill="none" stroke="#FFFFFF" stroke-width="1.28" mask="url(#gap-logo)"/><path d="M16.00 0.26L13.52 5.70L18.48 5.70Z"/><rect x="15.33" y="27.92" width="1.34" height="4.08"/><rect x="0.00" y="15.33" width="4.08" height="1.34"/><rect x="27.92" y="15.33" width="4.08" height="1.34"/><path d="M17.94 8.18L17.81 8.16L17.79 8.22L17.83 8.28L17.68 8.32L17.62 8.41L17.59 8.28L17.46 8.30L17.43 8.51L17.34 8.50L17.17 8.64L17.12 8.60L17.06 8.76L17.00 8.80L16.98 8.73L16.87 8.68L16.91 8.61L16.83 8.58L16.49 8.57L16.35 8.67L16.34 8.63L16.28 8.63L16.28 8.58L16.07 8.56L15.80 8.57L15.80 8.62L15.16 8.61L15.05 8.53L14.76 8.56L14.76 8.48L14.28 8.49L14.28 8.56L13.13 8.53L12.79 8.56L12.57 8.52L11.65 8.57L11.63 8.66L11.69 8.77L11.57 8.86L11.50 9.16L11.40 9.26L11.47 9.35L11.39 9.51L11.57 9.90L11.79 9.99L11.66 10.07L11.61 10.24L11.83 10.41L11.73 10.55L11.75 10.85L11.87 11.12L11.82 11.30L11.90 11.44L11.75 11.64L11.76 11.75L11.87 11.89L11.80 12.00L11.80 12.07L12.01 12.27L12.03 12.52L11.92 12.64L11.93 12.72L12.07 12.83L11.91 12.97L11.88 13.07L11.79 13.11L11.81 13.24L11.77 13.31L11.82 13.39L12.06 13.42L12.09 13.60L12.17 13.65L12.16 13.76L12.22 13.87L12.14 13.96L12.24 14.00L12.47 15.39L12.34 15.47L12.32 15.54L12.19 15.53L12.13 15.76L11.71 15.98L11.67 16.37L11.43 16.85L11.30 17.67L11.36 17.75L11.19 17.99L11.17 18.16L11.05 18.20L10.69 18.77L10.74 18.99L10.61 19.26L10.68 19.32L10.67 19.46L10.83 20.15L10.87 20.16L11.00 20.40L11.07 20.81L11.20 21.12L11.18 21.48L11.36 21.46L11.33 21.65L11.40 21.70L11.59 21.61L11.82 21.75L11.81 21.86L11.92 22.36L11.79 22.36L11.81 22.46L11.77 22.51L11.84 22.59L11.82 22.69L11.91 22.87L11.83 22.96L11.66 22.91L11.62 22.95L11.54 22.90L11.39 22.91L11.41 22.98L11.37 23.00L11.09 22.91L10.98 22.93L10.98 22.99L12.73 23.35L13.01 23.45L13.17 23.64L13.40 23.74L13.44 23.84L13.71 23.80L13.87 23.63L14.12 23.52L14.30 23.50L14.28 23.41L14.39 23.31L14.52 23.28L14.60 23.14L15.49 22.96L15.87 22.73L16.54 22.68L16.74 22.48L17.29 22.29L17.37 22.15L17.60 22.01L18.23 21.81L18.50 21.68L18.65 21.51L18.94 21.40L19.40 21.29L20.16 21.34L20.72 21.29L20.86 21.16L20.89 20.96L21.06 20.71L21.39 20.50L21.39 20.36L21.09 20.35L21.06 20.23L20.95 20.12L20.91 19.95L20.64 19.95L20.52 19.80L20.30 19.68L20.22 19.48L20.30 19.40L20.28 19.33L20.17 19.34L20.03 19.23L20.06 18.97L19.89 18.91L19.86 18.85L19.89 18.80L19.77 18.75L19.78 18.63L19.83 18.61L19.86 18.52L19.76 18.48L19.75 18.40L19.94 18.29L19.97 18.10L19.92 18.05L20.08 17.56L20.04 17.35L19.99 17.33L19.85 17.36L19.74 17.21L19.74 16.89L19.90 16.81L19.92 16.62L20.01 16.61L19.97 16.49L20.01 16.45L19.98 16.39L19.99 15.86L19.94 15.83L19.90 15.67L19.97 15.46L19.91 15.39L19.98 15.37L20.03 15.26L20.24 15.21L20.25 15.06L20.20 15.04L20.19 14.94L20.06 14.87L20.05 14.69L19.62 14.43L19.40 14.06L19.46 14.05L19.41 14.02L19.41 13.96L19.52 13.99L19.57 13.92L19.62 13.96L19.67 13.94L19.69 13.85L19.75 13.81L19.73 13.61L19.59 13.32L19.66 13.20L19.64 13.11L19.79 12.94L19.72 12.83L19.79 12.71L19.84 12.71L19.85 12.46L19.70 12.39L19.67 12.27L19.57 12.24L19.36 12.24L19.30 12.35L19.16 12.41L19.04 12.33L19.05 12.27L19.14 12.29L19.24 12.23L19.19 12.18L19.08 12.18L19.07 12.06L19.35 12.06L19.41 12.01L19.41 11.89L19.26 11.68L19.35 11.39L19.35 11.21L19.42 11.17L19.36 11.05L19.36 10.94L19.48 10.96L19.50 10.88L19.34 10.77L19.36 10.38L19.45 10.26L19.25 10.26L19.30 10.22L19.19 10.10L19.18 9.99L19.09 10.02L19.01 9.98L18.96 10.04L18.83 9.74L18.64 9.65L18.59 9.55L18.34 9.48L18.27 9.29L18.31 9.26L18.32 9.14L18.43 9.02L18.48 8.68L18.57 8.61L18.55 8.43L18.45 8.30L18.36 8.37L18.26 8.37L18.14 8.32L18.16 8.24L17.94 8.18Z"/></g></svg>